<svg width="1266" height="1208" viewBox="0 0 466 418" fill="none" xmlns="http://www.w3.org/2000/svg">
<path d="M225 166C226.855 188.273 226.855 188.273 220.563 195.937C219.183 197.438 217.786 198.921 216.381 200.398C197.129 222.72 192.743 255.805 194 284C196.445 314.34 209.899 341.387 231 363C231.654 363.715 232.307 364.431 232.98 365.168C252.885 386.431 284.076 398.824 312.777 400.126C325.798 400.478 338.333 400.198 351 397C351.659 396.834 352.317 396.667 352.996 396.496C375.412 390.597 394.502 379.107 411 363C411.715 362.346 412.431 361.693 413.168 361.02C434.436 341.11 446.844 309.964 448.124 281.215C448.475 268.439 448.139 256.421 445 244C444.582 242.256 444.582 242.256 444.156 240.477C440.981 228.295 435.962 216.941 429.563 206.125C429.188 205.491 428.813 204.858 428.427 204.205C426.118 200.444 423.616 197.589 420.438 194.5C414.067 187.158 416.41 175.077 417 166C426.412 173.832 434.416 182.656 441 193C441.376 193.585 441.753 194.169 442.14 194.771C452.493 211.018 459.364 228.091 463 247C463.336 248.57 463.336 248.57 463.68 250.172C470.477 286.112 460.339 325.113 440 355C417.731 386.831 385.578 406.511 348 415C346.952 415.247 345.904 415.495 344.824 415.75C309.45 422.643 271.115 413.254 241.25 393.875C239.48 392.61 237.729 391.319 236 390C235.121 389.34 234.242 388.68 233.336 388C212.465 371.64 194.408 349.476 186 324C186 323.01 186 322.02 186 321C185.157 321.007 184.314 321.013 183.445 321.02C175.5 321.08 167.555 321.126 159.609 321.155C155.524 321.171 151.439 321.192 147.355 321.226C143.412 321.259 139.47 321.277 135.528 321.285C134.024 321.29 132.52 321.301 131.016 321.317C128.909 321.339 126.803 321.342 124.696 321.341C123.497 321.347 122.298 321.354 121.063 321.361C117.711 320.966 116.35 320.382 114 318C112.76 314.281 112.828 310.811 112.807 306.936C112.799 306.115 112.791 305.293 112.782 304.447C112.758 301.728 112.741 299.008 112.727 296.289C112.721 295.36 112.716 294.431 112.71 293.475C112.684 288.561 112.664 283.646 112.65 278.732C112.637 274.664 112.609 270.596 112.568 266.528C112.519 261.616 112.494 256.705 112.487 251.793C112.48 249.921 112.465 248.05 112.441 246.179C112.409 243.559 112.409 240.942 112.417 238.323C112.4 237.551 112.384 236.778 112.367 235.983C112.411 232.152 112.879 230.17 115.117 227.021C118.606 224.575 120.482 224.364 124.718 224.341C125.372 224.33 126.026 224.32 126.701 224.309C128.849 224.28 130.996 224.286 133.145 224.293C134.64 224.28 136.135 224.265 137.63 224.247C141.554 224.207 145.478 224.197 149.402 224.193C153.411 224.184 157.419 224.146 161.428 224.111C169.285 224.047 177.142 224.014 185 224C185.526 222.793 186.052 221.585 186.594 220.342C187.303 218.726 188.013 217.111 188.723 215.496C189.067 214.704 189.411 213.912 189.766 213.096C195.182 200.806 202.102 190.077 211 180C212.201 178.635 212.201 178.635 213.426 177.242C223.439 166 223.439 166 225 166ZM132.664 259.684C128.509 265.467 128.268 271.087 129 278C130.825 285.632 135.696 290.567 142 295C148.631 298.191 155.306 297.871 162.188 295.5C168.772 292.57 172.373 287.782 175.938 281.687C177.75 275.397 178.194 268.945 175.563 262.812C172.113 256.879 166.817 252.229 160.563 249.5C147.851 247.716 141.159 249.953 132.664 259.684Z" fill="#A8B0BA"/>
<path d="M241 65C293.8 65 346.6 65 401 65C401 117.8 401 170.6 401 225C348.2 225 295.4 225 241 225C241 172.2 241 119.4 241 65ZM257 81C257 102.12 257 123.24 257 145C299.24 145 341.48 145 385 145C385 123.88 385 102.76 385 81C342.76 81 300.52 81 257 81ZM257 161C257 166.28 257 171.56 257 177C262.28 177 267.56 177 273 177C273 171.72 273 166.44 273 161C267.72 161 262.44 161 257 161ZM289 161C289 166.28 289 171.56 289 177C320.68 177 352.36 177 385 177C385 171.72 385 166.44 385 161C353.32 161 321.64 161 289 161ZM257 193C257 198.28 257 203.56 257 209C299.24 209 341.48 209 385 209C385 203.72 385 198.44 385 193C342.76 193 300.52 193 257 193Z" fill="#69D6F4"/>
<path d="M241 241C293.8 241 346.6 241 401 241C401 274.811 401 274.811 392.688 283.438C385.744 289.296 377.637 289.439 369.02 289.404C367.841 289.411 366.663 289.418 365.449 289.425C361.57 289.443 357.692 289.439 353.813 289.434C351.792 289.436 349.771 289.44 347.751 289.445C341.404 289.459 335.058 289.457 328.712 289.446C322.182 289.435 315.652 289.449 309.121 289.475C303.497 289.498 297.873 289.504 292.249 289.498C288.898 289.495 285.547 289.499 282.195 289.515C278.457 289.53 274.719 289.519 270.98 289.502C269.881 289.511 268.782 289.521 267.649 289.531C259.864 289.456 254.449 288.011 248.539 282.852C247.592 281.749 247.592 281.749 246.625 280.625C245.978 279.895 245.331 279.166 244.664 278.414C237.186 267.566 241 253.31 241 241ZM297 257C297 262.28 297 267.56 297 273C312.84 273 328.68 273 345 273C345 267.72 345 262.44 345 257C329.16 257 313.32 257 297 257Z" fill="#959EA9"/>
<path d="M257 81C299.24 81 341.48 81 385 81C385 102.12 385 123.24 385 145C342.76 145 300.52 145 257 145C257 123.88 257 102.76 257 81ZM273 97C273 107.56 273 118.12 273 129C304.68 129 336.36 129 369 129C369 118.44 369 107.88 369 97C337.32 97 305.64 97 273 97Z" fill="black"/>
<path d="M273 97C304.68 97 336.36 97 369 97C369 107.56 369 118.12 369 129C337.32 129 305.64 129 273 129C273 118.44 273 107.88 273 97Z" fill="#FF826E"/>
<path d="M225 20C225 26.27 225 32.54 225 39C222.36 37.68 219.72 36.36 217 35C209.955 33.2387 203.344 32.9169 196.887 36.5976C191.828 40.3577 187.939 44.9719 186 51C185.05 58.2895 185.838 64.8446 190 71C194.419 75.8247 198.893 79.3922 205.508 80.3711C213.179 80.5657 218.207 78.529 225 75C225 81.27 225 87.54 225 94C213.213 97.7717 203.179 98.8579 191.723 93.4844C180.269 87.2398 174.21 79.3116 170 67C167.343 56.2179 168.716 46.6925 174 37C185.513 18.244 204.636 13.4836 225 20Z" fill="#A7AFBA"/>
<path d="M257 193C299.24 193 341.48 193 385 193C385 198.28 385 203.56 385 209C342.76 209 300.52 209 257 209C257 203.72 257 198.44 257 193Z" fill="black"/>
<path d="M264.301 0.804667C265.765 0.814335 265.765 0.814335 267.26 0.824198C268.267 0.840956 269.275 0.857714 270.313 0.874979C271.339 0.884003 272.366 0.893026 273.424 0.902323C275.949 0.925817 278.475 0.958668 281 0.999979C281.014 2.2689 281.014 2.2689 281.028 3.56346C281.073 6.76217 281.135 9.96 281.208 13.1582C281.235 14.5311 281.257 15.9042 281.271 17.2773C281.403 29.2908 283.643 38.2866 289 49C273.16 49 257.32 49 241 49C240.876 41.8225 240.876 41.8225 240.75 34.5C240.714 33.0066 240.677 31.5132 240.64 29.9746C240.565 21.0265 241.208 15.2736 247.184 8.53904C248.299 7.59158 248.299 7.59158 249.438 6.62498C250.179 5.97787 250.92 5.33076 251.684 4.66404C255.771 1.72766 259.296 0.746126 264.301 0.804667Z" fill="#959EA9"/>
<path d="M361 1.00002C364.166 0.911808 367.333 0.859227 370.5 0.812517C371.387 0.787381 372.274 0.762244 373.187 0.736346C380.881 0.651488 387.29 1.91586 393.25 7.18752C393.874 7.71732 394.498 8.24713 395.141 8.79299C401.931 16.8525 401.498 24.3408 401.25 34.5C401.167 39.285 401.085 44.07 401 49C385.16 49 369.32 49 353 49C354.65 45.37 356.3 41.74 358 38C359.673 33.1426 360.282 28.8815 360.414 23.7539C360.433 23.0979 360.453 22.442 360.473 21.7661C360.532 19.6984 360.579 17.6306 360.625 15.5625C360.663 14.1491 360.702 12.7357 360.742 11.3223C360.838 7.88173 360.922 4.44101 361 1.00002Z" fill="#959EA9"/>
<path d="M297 1C312.84 1 328.68 1 345 1C345.155 7.86812 345.155 7.86812 345.313 14.875C345.358 16.298 345.404 17.7209 345.45 19.187C345.547 28.1117 344.404 35.1105 338.289 41.8994C333.067 46.9141 327.167 49.0972 320 49.4375C312.334 49.1327 307.8 46.1442 302.625 40.625C297.851 35.242 296.742 30.1778 296.805 23.0703C296.81 21.9077 296.815 20.7452 296.82 19.5474C296.838 18.088 296.856 16.6286 296.875 15.125C296.916 10.4637 296.958 5.8025 297 1ZM313 22C312.167 25 312.167 25 313 28C315.456 31.3227 316.926 32.7762 321 33.625C325.074 32.7762 326.544 31.3227 329 28C329.833 25 329.833 25 329 22C326.544 18.6773 325.074 17.2238 321 16.375C316.926 17.2238 315.456 18.6773 313 22Z" fill="#FAD56F"/>
<path d="M163.055 250.898C169.556 254.58 174.933 259.682 177 267C178.264 275.016 176.613 281.36 172 288C167.289 293.42 161.651 296.399 154.551 297.316C148.519 297.603 143.868 296.651 139 293C132.366 286.801 129.052 281.767 128.625 272.625C128.798 265.901 130.455 261.673 135.094 256.801C143.339 249.146 152.27 246.226 163.055 250.898ZM145 270C144.167 273 144.167 273 145 276C147.456 279.323 148.926 280.776 153 281.625C157.074 280.776 158.544 279.323 161 276C161.833 273 161.833 273 161 270C158.544 266.677 157.074 265.224 153 264.375C148.926 265.224 147.456 266.677 145 270Z" fill="#020202"/>
<path d="M289 161C320.68 161 352.36 161 385 161C385 166.28 385 171.56 385 177C353.32 177 321.64 177 289 177C289 171.72 289 166.44 289 161Z" fill="black"/>
<path d="M85 257C90.6748 258.964 94.314 262.628 97 268C97.5436 272.955 97.5644 276.871 95.3125 281.375C92.1475 284.968 88.788 288.694 83.8281 289.238C77.9815 289.407 74.5681 289.024 70 285C65.6011 280.007 64.6432 277.09 64.7187 270.539C65.2698 265.564 68.007 262.875 71.625 259.687C76.0769 256.524 79.646 256.512 85 257Z" fill="#C6CBD3"/>
<path d="M37 257C42.6748 258.964 46.314 262.628 49 268C49.5436 272.955 49.5644 276.871 47.3125 281.375C44.1475 284.968 40.788 288.694 35.8281 289.238C29.9816 289.407 26.5681 289.024 22 285C17.6011 280.007 16.6433 277.09 16.7188 270.539C17.2699 265.564 20.007 262.875 23.625 259.687C28.0769 256.524 31.646 256.512 37 257Z" fill="#C6CBD3"/>
<path d="M21 169C26.6748 170.964 30.314 174.628 33 180C33.5436 184.955 33.5644 188.871 31.3125 193.375C28.1475 196.968 24.788 200.694 19.8281 201.238C13.9815 201.407 10.5681 201.024 6 197C1.60107 192.007 0.643236 189.09 0.71875 182.539C1.26984 177.564 4.00698 174.875 7.625 171.687C12.0769 168.524 15.646 168.512 21 169Z" fill="#C6CBD3"/>
<path d="M21 121C26.6748 122.964 30.314 126.628 33 132C33.5436 136.955 33.5644 140.871 31.3125 145.375C28.1475 148.968 24.788 152.694 19.8281 153.238C13.9815 153.407 10.5681 153.024 6 149C1.60107 144.007 0.643236 141.09 0.71875 134.539C1.26984 129.564 4.00698 126.875 7.625 123.687C12.0769 120.524 15.646 120.512 21 121Z" fill="#C6CBD3"/>
<path d="M21 73C26.6748 74.9643 30.314 78.628 33 84C33.5436 88.9548 33.5644 92.8712 31.3125 97.375C28.1475 100.968 24.788 104.694 19.8281 105.238C13.9815 105.407 10.5681 105.024 6 101C1.60107 96.0066 0.643236 93.0898 0.71875 86.539C1.26984 81.564 4.00698 78.8748 7.625 75.6875C12.0769 72.5243 15.646 72.5116 21 73Z" fill="#C6CBD3"/>
<path d="M141 41C146.675 42.9643 150.314 46.628 153 52C153.544 56.9548 153.564 60.8713 151.312 65.375C148.147 68.9678 144.788 72.6941 139.828 73.2383C133.982 73.4066 130.568 73.0243 126 69C121.601 64.0066 120.643 61.0898 120.719 54.5391C121.27 49.564 124.007 46.8748 127.625 43.6875C132.077 40.5243 135.646 40.5116 141 41Z" fill="#C6CBD3"/>
<path d="M93 41C98.6748 42.9643 102.314 46.628 105 52C105.544 56.9548 105.564 60.8713 103.313 65.375C100.147 68.9678 96.788 72.6941 91.8281 73.2383C85.9816 73.4066 82.5681 73.0243 78 69C73.6011 64.0066 72.6433 61.0898 72.7188 54.5391C73.2699 49.564 76.007 46.8748 79.625 43.6875C84.0769 40.5243 87.646 40.5116 93 41Z" fill="#C6CBD3"/>
<path d="M297 257C312.84 257 328.68 257 345 257C345 262.28 345 267.56 345 273C329.16 273 313.32 273 297 273C297 267.72 297 262.44 297 257Z" fill="black"/>
<path d="M21 217C26.6748 218.964 30.314 222.628 33 228C33.4755 237.668 33.4754 237.668 31 241C28.5662 241.954 26.1376 242.606 23.6016 243.238C21.1147 243.966 19.35 244.854 17.1875 246.25C14 248 14 248 11.375 248C6.90335 246.117 4.55947 244.003 2.18749 239.75C0.771946 235.28 0.481752 232.664 0.999991 228C5.5705 219.198 11.5057 216.134 21 217Z" fill="#C8CDD4"/>
<path d="M45 41C50.6747 42.9643 54.314 46.628 57 52C57.5906 57.6786 57.2937 62.1692 54 67C52.0799 69.1353 50.4585 70.3774 48 72C44.8944 72 43.6025 71.4778 41.1875 69.5625C40 68 40 68 40 66C39.4586 65.7344 38.9172 65.4689 38.3594 65.1953C35.6247 63.8099 32.9387 62.3474 30.25 60.875C29.2651 60.3362 28.2803 59.7973 27.2656 59.2422C26.518 58.8322 25.7703 58.4223 25 58C24.7974 52.6126 25.5738 50.2596 29 46C34.4158 41.2289 37.9088 40.3532 45 41Z" fill="#C6CBD3"/>
<path d="M257 161C262.28 161 267.56 161 273 161C273 166.28 273 171.56 273 177C267.72 177 262.44 177 257 177C257 171.72 257 166.44 257 161Z" fill="black"/>
<path d="M153 264.375C157.074 265.224 158.544 266.677 161 270C161.625 273 161.625 273 161 276C158.544 279.323 157.074 280.776 153 281.625C148.926 280.776 147.456 279.323 145 276C144.375 273 144.375 273 145 270C147.456 266.677 148.926 265.224 153 264.375Z" fill="#DBDDE1"/>
<path d="M321 16.375C325.074 17.2238 326.544 18.6773 329 22C329.625 25 329.625 25 329 28C326.544 31.3227 325.074 32.7762 321 33.625C316.926 32.7762 315.456 31.3227 313 28C312.375 25 312.375 25 313 22C315.456 18.6773 316.926 17.2238 321 16.375Z" fill="#0B0A05"/>
<path d="M225 166C226.855 188.273 226.855 188.273 220.563 195.937C219.183 197.438 217.786 198.921 216.381 200.398C197.129 222.72 192.743 255.805 194 284C196.445 314.34 209.899 341.387 231 363C231.654 363.715 232.307 364.431 232.98 365.168C252.885 386.431 284.076 398.824 312.777 400.126C325.798 400.478 338.333 400.198 351 397C351.659 396.834 352.317 396.667 352.996 396.496C375.412 390.597 394.502 379.107 411 363C411.715 362.346 412.431 361.693 413.168 361.02C434.436 341.11 446.844 309.964 448.124 281.215C448.475 268.439 448.139 256.421 445 244C444.582 242.256 444.582 242.256 444.156 240.477C440.981 228.295 435.962 216.941 429.563 206.125C429.188 205.491 428.813 204.858 428.427 204.205C426.118 200.444 423.616 197.589 420.438 194.5C414.067 187.158 416.41 175.077 417 166C426.412 173.832 434.416 182.656 441 193C441.376 193.585 441.753 194.169 442.14 194.771C452.493 211.018 459.364 228.091 463 247C463.336 248.57 463.336 248.57 463.68 250.172C470.477 286.112 460.339 325.113 440 355C417.731 386.831 385.578 406.511 348 415C346.952 415.247 345.904 415.495 344.824 415.75C309.45 422.643 271.115 413.254 241.25 393.875C239.48 392.61 237.729 391.319 236 390C235.121 389.34 234.242 388.68 233.336 388C212.465 371.64 194.408 349.476 186 324C186 323.01 186 322.02 186 321C185.157 321.007 184.314 321.013 183.445 321.02C175.5 321.08 167.555 321.126 159.609 321.155C155.524 321.171 151.439 321.192 147.355 321.226C143.412 321.259 139.47 321.277 135.528 321.285C134.024 321.29 132.52 321.301 131.016 321.317C128.909 321.339 126.803 321.342 124.696 321.341C123.497 321.347 122.298 321.354 121.063 321.361C117.711 320.966 116.35 320.382 114 318C112.76 314.281 112.828 310.811 112.807 306.936C112.799 306.115 112.791 305.293 112.782 304.447C112.758 301.728 112.741 299.008 112.727 296.289C112.721 295.36 112.716 294.431 112.71 293.475C112.684 288.561 112.664 283.646 112.65 278.732C112.637 274.664 112.609 270.596 112.568 266.528C112.519 261.616 112.494 256.705 112.487 251.793C112.48 249.921 112.465 248.05 112.441 246.179C112.409 243.559 112.409 240.942 112.417 238.323C112.4 237.551 112.384 236.778 112.367 235.983C112.411 232.152 112.879 230.17 115.117 227.021C118.606 224.575 120.482 224.364 124.718 224.341C125.372 224.33 126.026 224.32 126.701 224.309C128.849 224.28 130.996 224.286 133.145 224.293C134.64 224.28 136.135 224.265 137.63 224.247C141.554 224.207 145.478 224.197 149.402 224.193C153.411 224.184 157.419 224.146 161.428 224.111C169.285 224.047 177.142 224.014 185 224C185.526 222.793 186.052 221.585 186.594 220.342C187.303 218.726 188.013 217.111 188.723 215.496C189.067 214.704 189.411 213.912 189.766 213.096C195.182 200.806 202.102 190.077 211 180C212.201 178.635 212.201 178.635 213.426 177.242C223.439 166 223.439 166 225 166ZM132.664 259.684C128.509 265.467 128.268 271.087 129 278C130.825 285.632 135.696 290.567 142 295C148.631 298.191 155.306 297.871 162.188 295.5C168.772 292.57 172.373 287.782 175.938 281.687C177.75 275.397 178.194 268.945 175.563 262.812C172.113 256.879 166.817 252.229 160.563 249.5C147.851 247.716 141.159 249.953 132.664 259.684Z" fill="#A8B0BA"/>
<path d="M241 65C293.8 65 346.6 65 401 65C401 117.8 401 170.6 401 225C348.2 225 295.4 225 241 225C241 172.2 241 119.4 241 65ZM257 81C257 102.12 257 123.24 257 145C299.24 145 341.48 145 385 145C385 123.88 385 102.76 385 81C342.76 81 300.52 81 257 81ZM257 161C257 166.28 257 171.56 257 177C262.28 177 267.56 177 273 177C273 171.72 273 166.44 273 161C267.72 161 262.44 161 257 161ZM289 161C289 166.28 289 171.56 289 177C320.68 177 352.36 177 385 177C385 171.72 385 166.44 385 161C353.32 161 321.64 161 289 161ZM257 193C257 198.28 257 203.56 257 209C299.24 209 341.48 209 385 209C385 203.72 385 198.44 385 193C342.76 193 300.52 193 257 193Z" fill="#69D6F4"/>
<path d="M241 241C293.8 241 346.6 241 401 241C401 274.811 401 274.811 392.688 283.438C385.744 289.296 377.637 289.439 369.02 289.404C367.841 289.411 366.663 289.418 365.449 289.425C361.57 289.443 357.692 289.439 353.813 289.434C351.792 289.436 349.771 289.44 347.751 289.445C341.404 289.459 335.058 289.457 328.712 289.446C322.182 289.435 315.652 289.449 309.121 289.475C303.497 289.498 297.873 289.504 292.249 289.498C288.898 289.495 285.547 289.499 282.195 289.515C278.457 289.53 274.719 289.519 270.98 289.502C269.881 289.511 268.782 289.521 267.649 289.531C259.864 289.456 254.449 288.011 248.539 282.852C247.592 281.749 247.592 281.749 246.625 280.625C245.978 279.895 245.331 279.166 244.664 278.414C237.186 267.566 241 253.31 241 241ZM297 257C297 262.28 297 267.56 297 273C312.84 273 328.68 273 345 273C345 267.72 345 262.44 345 257C329.16 257 313.32 257 297 257Z" fill="#959EA9"/>
<path d="M257 81C299.24 81 341.48 81 385 81C385 102.12 385 123.24 385 145C342.76 145 300.52 145 257 145C257 123.88 257 102.76 257 81ZM273 97C273 107.56 273 118.12 273 129C304.68 129 336.36 129 369 129C369 118.44 369 107.88 369 97C337.32 97 305.64 97 273 97Z" fill="black"/>
<path d="M273 97C304.68 97 336.36 97 369 97C369 107.56 369 118.12 369 129C337.32 129 305.64 129 273 129C273 118.44 273 107.88 273 97Z" fill="#FF826E"/>
<path d="M225 20C225 26.27 225 32.54 225 39C222.36 37.68 219.72 36.36 217 35C209.955 33.2387 203.344 32.9169 196.887 36.5976C191.828 40.3577 187.939 44.9719 186 51C185.05 58.2895 185.838 64.8446 190 71C194.419 75.8247 198.893 79.3922 205.508 80.3711C213.179 80.5657 218.207 78.529 225 75C225 81.27 225 87.54 225 94C213.213 97.7717 203.179 98.8579 191.723 93.4844C180.269 87.2398 174.21 79.3116 170 67C167.343 56.2179 168.716 46.6925 174 37C185.513 18.244 204.636 13.4836 225 20Z" fill="#A7AFBA"/>
<path d="M257 193C299.24 193 341.48 193 385 193C385 198.28 385 203.56 385 209C342.76 209 300.52 209 257 209C257 203.72 257 198.44 257 193Z" fill="black"/>
<path d="M264.301 0.804667C265.765 0.814335 265.765 0.814335 267.26 0.824198C268.267 0.840956 269.275 0.857714 270.313 0.874979C271.339 0.884003 272.366 0.893026 273.424 0.902323C275.949 0.925817 278.475 0.958668 281 0.999979C281.014 2.2689 281.014 2.2689 281.028 3.56346C281.073 6.76217 281.135 9.96 281.208 13.1582C281.235 14.5311 281.257 15.9042 281.271 17.2773C281.403 29.2908 283.643 38.2866 289 49C273.16 49 257.32 49 241 49C240.876 41.8225 240.876 41.8225 240.75 34.5C240.714 33.0066 240.677 31.5132 240.64 29.9746C240.565 21.0265 241.208 15.2736 247.184 8.53904C248.299 7.59158 248.299 7.59158 249.438 6.62498C250.179 5.97787 250.92 5.33076 251.684 4.66404C255.771 1.72766 259.296 0.746126 264.301 0.804667Z" fill="#959EA9"/>
<path d="M361 1.00002C364.166 0.911808 367.333 0.859227 370.5 0.812517C371.387 0.787381 372.274 0.762244 373.187 0.736346C380.881 0.651488 387.29 1.91586 393.25 7.18752C393.874 7.71732 394.498 8.24713 395.141 8.79299C401.931 16.8525 401.498 24.3408 401.25 34.5C401.167 39.285 401.085 44.07 401 49C385.16 49 369.32 49 353 49C354.65 45.37 356.3 41.74 358 38C359.673 33.1426 360.282 28.8815 360.414 23.7539C360.433 23.0979 360.453 22.442 360.473 21.7661C360.532 19.6984 360.579 17.6306 360.625 15.5625C360.663 14.1491 360.702 12.7357 360.742 11.3223C360.838 7.88173 360.922 4.44101 361 1.00002Z" fill="#959EA9"/>
<path d="M297 1C312.84 1 328.68 1 345 1C345.155 7.86812 345.155 7.86812 345.313 14.875C345.358 16.298 345.404 17.7209 345.45 19.187C345.547 28.1117 344.404 35.1105 338.289 41.8994C333.067 46.9141 327.167 49.0972 320 49.4375C312.334 49.1327 307.8 46.1442 302.625 40.625C297.851 35.242 296.742 30.1778 296.805 23.0703C296.81 21.9077 296.815 20.7452 296.82 19.5474C296.838 18.088 296.856 16.6286 296.875 15.125C296.916 10.4637 296.958 5.8025 297 1ZM313 22C312.167 25 312.167 25 313 28C315.456 31.3227 316.926 32.7762 321 33.625C325.074 32.7762 326.544 31.3227 329 28C329.833 25 329.833 25 329 22C326.544 18.6773 325.074 17.2238 321 16.375C316.926 17.2238 315.456 18.6773 313 22Z" fill="#FAD56F"/>
<path d="M163.055 250.898C169.556 254.58 174.933 259.682 177 267C178.264 275.016 176.613 281.36 172 288C167.289 293.42 161.651 296.399 154.551 297.316C148.519 297.603 143.868 296.651 139 293C132.366 286.801 129.052 281.767 128.625 272.625C128.798 265.901 130.455 261.673 135.094 256.801C143.339 249.146 152.27 246.226 163.055 250.898ZM145 270C144.167 273 144.167 273 145 276C147.456 279.323 148.926 280.776 153 281.625C157.074 280.776 158.544 279.323 161 276C161.833 273 161.833 273 161 270C158.544 266.677 157.074 265.224 153 264.375C148.926 265.224 147.456 266.677 145 270Z" fill="#020202"/>
<path d="M289 161C320.68 161 352.36 161 385 161C385 166.28 385 171.56 385 177C353.32 177 321.64 177 289 177C289 171.72 289 166.44 289 161Z" fill="black"/>
<path d="M85 257C90.6748 258.964 94.314 262.628 97 268C97.5436 272.955 97.5644 276.871 95.3125 281.375C92.1475 284.968 88.788 288.694 83.8281 289.238C77.9815 289.407 74.5681 289.024 70 285C65.6011 280.007 64.6432 277.09 64.7187 270.539C65.2698 265.564 68.007 262.875 71.625 259.687C76.0769 256.524 79.646 256.512 85 257Z" fill="#C6CBD3"/>
<path d="M37 257C42.6748 258.964 46.314 262.628 49 268C49.5436 272.955 49.5644 276.871 47.3125 281.375C44.1475 284.968 40.788 288.694 35.8281 289.238C29.9816 289.407 26.5681 289.024 22 285C17.6011 280.007 16.6433 277.09 16.7188 270.539C17.2699 265.564 20.007 262.875 23.625 259.687C28.0769 256.524 31.646 256.512 37 257Z" fill="#C6CBD3"/>
<path d="M21 169C26.6748 170.964 30.314 174.628 33 180C33.5436 184.955 33.5644 188.871 31.3125 193.375C28.1475 196.968 24.788 200.694 19.8281 201.238C13.9815 201.407 10.5681 201.024 6 197C1.60107 192.007 0.643236 189.09 0.71875 182.539C1.26984 177.564 4.00698 174.875 7.625 171.687C12.0769 168.524 15.646 168.512 21 169Z" fill="#C6CBD3"/>
<path d="M21 121C26.6748 122.964 30.314 126.628 33 132C33.5436 136.955 33.5644 140.871 31.3125 145.375C28.1475 148.968 24.788 152.694 19.8281 153.238C13.9815 153.407 10.5681 153.024 6 149C1.60107 144.007 0.643236 141.09 0.71875 134.539C1.26984 129.564 4.00698 126.875 7.625 123.687C12.0769 120.524 15.646 120.512 21 121Z" fill="#C6CBD3"/>
<path d="M21 73C26.6748 74.9643 30.314 78.628 33 84C33.5436 88.9548 33.5644 92.8712 31.3125 97.375C28.1475 100.968 24.788 104.694 19.8281 105.238C13.9815 105.407 10.5681 105.024 6 101C1.60107 96.0066 0.643236 93.0898 0.71875 86.539C1.26984 81.564 4.00698 78.8748 7.625 75.6875C12.0769 72.5243 15.646 72.5116 21 73Z" fill="#C6CBD3"/>
<path d="M141 41C146.675 42.9643 150.314 46.628 153 52C153.544 56.9548 153.564 60.8713 151.312 65.375C148.147 68.9678 144.788 72.6941 139.828 73.2383C133.982 73.4066 130.568 73.0243 126 69C121.601 64.0066 120.643 61.0898 120.719 54.5391C121.27 49.564 124.007 46.8748 127.625 43.6875C132.077 40.5243 135.646 40.5116 141 41Z" fill="#C6CBD3"/>
<path d="M93 41C98.6748 42.9643 102.314 46.628 105 52C105.544 56.9548 105.564 60.8713 103.313 65.375C100.147 68.9678 96.788 72.6941 91.8281 73.2383C85.9816 73.4066 82.5681 73.0243 78 69C73.6011 64.0066 72.6433 61.0898 72.7188 54.5391C73.2699 49.564 76.007 46.8748 79.625 43.6875C84.0769 40.5243 87.646 40.5116 93 41Z" fill="#C6CBD3"/>
<path d="M297 257C312.84 257 328.68 257 345 257C345 262.28 345 267.56 345 273C329.16 273 313.32 273 297 273C297 267.72 297 262.44 297 257Z" fill="black"/>
<path d="M21 217C26.6748 218.964 30.314 222.628 33 228C33.4755 237.668 33.4754 237.668 31 241C28.5662 241.954 26.1376 242.606 23.6016 243.238C21.1147 243.966 19.35 244.854 17.1875 246.25C14 248 14 248 11.375 248C6.90335 246.117 4.55947 244.003 2.18749 239.75C0.771946 235.28 0.481752 232.664 0.999991 228C5.5705 219.198 11.5057 216.134 21 217Z" fill="#C8CDD4"/>
<path d="M45 41C50.6747 42.9643 54.314 46.628 57 52C57.5906 57.6786 57.2937 62.1692 54 67C52.0799 69.1353 50.4585 70.3774 48 72C44.8944 72 43.6025 71.4778 41.1875 69.5625C40 68 40 68 40 66C39.4586 65.7344 38.9172 65.4689 38.3594 65.1953C35.6247 63.8099 32.9387 62.3474 30.25 60.875C29.2651 60.3362 28.2803 59.7973 27.2656 59.2422C26.518 58.8322 25.7703 58.4223 25 58C24.7974 52.6126 25.5738 50.2596 29 46C34.4158 41.2289 37.9088 40.3532 45 41Z" fill="#C6CBD3"/>
<path d="M257 161C262.28 161 267.56 161 273 161C273 166.28 273 171.56 273 177C267.72 177 262.44 177 257 177C257 171.72 257 166.44 257 161Z" fill="black"/>
<path d="M153 264.375C157.074 265.224 158.544 266.677 161 270C161.625 273 161.625 273 161 276C158.544 279.323 157.074 280.776 153 281.625C148.926 280.776 147.456 279.323 145 276C144.375 273 144.375 273 145 270C147.456 266.677 148.926 265.224 153 264.375Z" fill="#DBDDE1"/>
<path d="M321 16.375C325.074 17.2238 326.544 18.6773 329 22C329.625 25 329.625 25 329 28C326.544 31.3227 325.074 32.7762 321 33.625C316.926 32.7762 315.456 31.3227 313 28C312.375 25 312.375 25 313 22C315.456 18.6773 316.926 17.2238 321 16.375Z" fill="#0B0A05"/>
</svg>
